<?xml version="1.0" encoding="utf-8"?>
<!-- Generator: Adobe Illustrator 27.9.0, SVG Export Plug-In . SVG Version: 6.00 Build 0)  -->
<svg version="1.1" id="Laag_1" xmlns="http://www.w3.org/2000/svg" xmlns:xlink="http://www.w3.org/1999/xlink" x="0px" y="0px"
	 viewBox="0 0 237.78 849.39" style="enable-background:new 0 0 237.78 849.39;" xml:space="preserve">
<style type="text/css">
	.st0{fill:none;}
</style>
<g>
	<g>
		<path d="M108.52,23.64l0.22,0.41v4.15c-1.94,1.63-2.91,2.73-2.91,3.32c0.15,2.97,0.22,5.18,0.22,6.64v37.54
			c0,1.9-0.08,4.39-0.22,7.47c0,0.62,0.97,1.66,2.91,3.11v4.36c0,0.28-0.15,0.41-0.45,0.41h-3.13c-4.14,0-8.54-2.07-13.2-6.22
			c0-0.1-0.08-0.52-0.22-1.24c0.3-3.39,0.45-6.08,0.45-8.09V39.6c0-3.01-0.15-5.77-0.45-8.3c0-2.28,2.69-4.42,8.06-6.43
			c0.67-0.69,1.34-1.04,2.01-1.04h5.15L108.52,23.64z M109.41,23.64h1.57c0.3,0.03,0.45,0.17,0.45,0.41v2.7
			c-0.19,0.38-0.93,0.86-2.24,1.45l-0.22-0.41v-3.73C109,23.77,109.15,23.64,109.41,23.64z M109.19,86.27
			c1.49,0.62,2.24,1.04,2.24,1.24v2.9c0,0.41-0.75,0.62-2.24,0.62l-0.22-0.41v-3.94L109.19,86.27z M112.55,23.64h0.9
			c0.3,0.03,0.45,0.17,0.45,0.41v2.07c0,0.24-0.52,0.45-1.57,0.62l-0.22-0.41v-2.28C112.14,23.77,112.29,23.64,112.55,23.64z
			 M112.32,87.72c1.04,0.17,1.57,0.38,1.57,0.62v2.07c0,0.28-0.15,0.41-0.45,0.41h-0.9c-0.3,0-0.45-0.14-0.45-0.41v-2.28
			L112.32,87.72z M115.46,23.64h0.67c0.3,0.03,0.45,0.17,0.45,0.41v1.87c0,0.28-0.15,0.41-0.45,0.41h-0.67
			c-0.3,0-0.45-0.14-0.45-0.41v-1.87C115.05,23.77,115.2,23.64,115.46,23.64z M115.46,88.13h0.67c0.3,0.03,0.45,0.17,0.45,0.41v1.87
			c0,0.28-0.15,0.41-0.45,0.41h-0.67c-0.3,0-0.45-0.14-0.45-0.41v-1.87C115.05,88.27,115.2,88.13,115.46,88.13z M116.13,32.14
			c0.3,0.03,0.45,0.17,0.45,0.41v49.36c0,0.28-0.15,0.41-0.45,0.41h-0.22c-0.3,0-0.45-0.14-0.45-0.41V47.9
			c0-3.32,0.07-8.5,0.22-15.55L116.13,32.14z M117.92,23.64h1.12c0.3,0.03,0.45,0.17,0.45,0.41v1.87c0,0.28-0.15,0.41-0.45,0.41
			h-1.12c-0.3,0-0.45-0.14-0.45-0.41v-1.87C117.51,23.77,117.66,23.64,117.92,23.64z M118.81,31.93h0.22
			c0.3,0.03,0.45,0.17,0.45,0.41v49.77c0,0.28-0.15,0.41-0.45,0.41h-0.22c-0.78,0-1.23-0.21-1.34-0.62V32.55
			C117.62,32.14,118.07,31.93,118.81,31.93z M119.26,87.93l0.22,0.41v2.07c0,0.28-0.15,0.41-0.45,0.41h-1.12
			c-0.3,0-0.45-0.14-0.45-0.41v-1.87C117.47,88.2,118.07,88,119.26,87.93z M120.6,23.64h1.34c0.3,0.03,0.45,0.17,0.45,0.41v2.07
			c0,0.28-0.15,0.41-0.45,0.41h-1.34c-0.3,0-0.45-0.14-0.45-0.41v-2.07C120.19,23.77,120.34,23.64,120.6,23.64z M120.6,31.93h1.34
			c0.3,0.03,0.45,0.17,0.45,0.41v2.07c0,0.28-0.15,0.41-0.45,0.41h-1.79v-2.49C120.19,32.07,120.34,31.93,120.6,31.93z M120.6,79.42
			h1.12c0.22,0,0.45,0.21,0.67,0.62v2.07c0,0.28-0.15,0.41-0.45,0.41h-1.34c-0.3,0-0.45-0.14-0.45-0.41v-2.28
			C120.19,79.56,120.34,79.42,120.6,79.42z M120.6,87.93h1.34c0.3,0.03,0.45,0.17,0.45,0.41v2.07c0,0.28-0.15,0.41-0.45,0.41h-1.34
			c-0.3,0-0.45-0.14-0.45-0.41v-2.07C120.19,88.06,120.34,87.93,120.6,87.93z M123.06,23.64h21.48c0.15,0,0.22,0.07,0.22,0.21
			l0.45-0.21h1.79c0.3,0.03,0.45,0.17,0.45,0.41v2.07c0,0.28-0.15,0.41-0.45,0.41h-23.95c-0.3,0-0.45-0.14-0.45-0.41v-2.07
			C122.65,23.77,122.8,23.64,123.06,23.64z M123.06,31.93h23.95c0.3,0.03,0.45,0.17,0.45,0.41v2.07c0,0.28-0.15,0.41-0.45,0.41
			h-23.95c-0.3,0-0.45-0.14-0.45-0.41v-2.07C122.65,32.07,122.8,31.93,123.06,31.93z M123.06,79.63h23.95
			c0.3,0.03,0.45,0.17,0.45,0.41v2.07c0,0.28-0.15,0.41-0.45,0.41h-24.17l-0.22-1.45v-1.04C122.65,79.77,122.8,79.63,123.06,79.63z
			 M123.06,87.93h23.95c0.3,0.03,0.45,0.17,0.45,0.41v2.07c0,0.28-0.15,0.41-0.45,0.41h-24.17l-0.22-1.45v-1.04
			C122.65,88.06,122.8,87.93,123.06,87.93z M148.13,23.64h1.34c0.3,0.03,0.45,0.17,0.45,0.41v2.28l-0.22,0.41
			c-1.34-0.17-2.01-0.38-2.01-0.62v-2.07C147.72,23.77,147.87,23.64,148.13,23.64z M148.13,31.93h1.34c0.3,0.03,0.45,0.17,0.45,0.41
			v2.07c0,0.28-0.15,0.41-0.45,0.41h-1.34c-0.3,0-0.45-0.14-0.45-0.41v-2.07C147.72,32.07,147.87,31.93,148.13,31.93z M148.13,79.63
			h1.34c0.3,0.03,0.45,0.17,0.45,0.41v2.07c0,0.28-0.15,0.41-0.45,0.41h-1.34c-0.3,0-0.45-0.14-0.45-0.41v-2.07
			C147.72,79.77,147.87,79.63,148.13,79.63z M148.13,87.93h1.34c0.3,0.03,0.45,0.17,0.45,0.41v2.07c0,0.28-0.15,0.41-0.45,0.41
			h-1.34c-0.3,0-0.45-0.14-0.45-0.41v-2.07C147.72,88.06,147.87,87.93,148.13,87.93z M151.04,23.84h1.12
			c0.3,0.03,0.45,0.17,0.45,0.41v10.16c0,0.28-0.15,0.41-0.45,0.41h-1.12c-0.3,0-0.45-0.14-0.45-0.41V24.26
			C150.63,23.98,150.78,23.84,151.04,23.84z M151.04,79.63h1.12c0.3,0.03,0.45,0.17,0.45,0.41v10.16c0,0.28-0.15,0.41-0.45,0.41
			h-1.12c-0.3,0-0.45-0.14-0.45-0.41V80.05C150.63,79.77,150.78,79.63,151.04,79.63z M153.95,23.84h0.22c0.22,0,0.45,0.21,0.67,0.62
			c0.15,3.08,0.22,4.74,0.22,4.98c-0.15,2.52-0.22,4.11-0.22,4.77l-0.67,0.41h-0.22c-0.3,0-0.45-0.14-0.45-0.41v-9.95
			C153.54,23.98,153.69,23.84,153.95,23.84z M153.5,79.84h0.67c0.22,0,0.45,0.21,0.67,0.62c0.15,3.08,0.22,4.74,0.22,4.98
			c-0.15,2.52-0.22,4.11-0.22,4.77l-0.67,0.41h-0.22c-0.3,0-0.45-0.14-0.45-0.41V79.84z"/>
		<path d="M99.23,130.03h13.65c0.3,0.03,0.45,0.17,0.45,0.41v2.28c0,0.28-0.15,0.41-0.45,0.41h-2.46c-3.54,1.35-5.86,2.8-6.94,4.36
			c0.15,4.77,0.22,8.23,0.22,10.37v30.49c0,2.7-0.08,6.43-0.22,11.2c0,1.35,2.61,2.94,7.83,4.77h1.57c0.3,0.03,0.45,0.17,0.45,0.41
			v2.07c0,0.28-0.15,0.41-0.45,0.41h-1.79c-0.15,0-0.22-0.07-0.22-0.21l-0.45,0.21h-9.18c-3.06,0-6.94-2-11.64-6.01
			c0-0.41-0.08-0.62-0.22-0.62c0.15-4.22,0.22-7.33,0.22-9.33v-35.26c0-2.45-0.08-5.5-0.22-9.13c0-1.66,3.13-3.8,9.4-6.43
			C98.82,130.16,98.97,130.03,99.23,130.03z M112.88,173.16h0.45v2.07h-0.45V173.16z M114,129.82h1.34c0.3,0.03,0.45,0.17,0.45,0.41
			v2.28c0,0.28-0.15,0.41-0.45,0.41H114c-0.3,0-0.45-0.14-0.45-0.41v-2.28C113.59,129.96,113.74,129.82,114,129.82z M114,138.32
			h1.34c0.3,0.03,0.45,0.17,0.45,0.41v34.63c0,0.38-0.52,1.35-1.57,2.9h-0.67v-37.54C113.59,138.46,113.74,138.32,114,138.32z
			 M114,194.52h1.34c0.3,0.03,0.45,0.17,0.45,0.41v1.87c0,0.28-0.15,0.41-0.45,0.41H114c-0.3,0-0.45-0.14-0.45-0.41v-1.87
			C113.59,194.66,113.74,194.52,114,194.52z M116.91,129.82h1.12c0.3,0.03,0.45,0.17,0.45,0.41v2.28c0,0.28-0.15,0.41-0.45,0.41
			h-1.12c-0.3,0-0.45-0.14-0.45-0.41v-2.28C116.5,129.96,116.65,129.82,116.91,129.82z M116.91,138.32h1.12
			c0.3,0.03,0.45,0.17,0.45,0.41v31.32c-1.04,1.52-1.64,2.28-1.79,2.28h-0.22v-33.6C116.5,138.46,116.65,138.32,116.91,138.32z
			 M118.25,184.57h0.22v3.94c0,0.28-0.15,0.41-0.45,0.41h-1.12c-0.3,0-0.45-0.14-0.45-0.41v-0.62
			C116.46,186.92,117.06,185.81,118.25,184.57z M116.91,194.52h1.12c0.3,0.03,0.45,0.17,0.45,0.41v1.87c0,0.28-0.15,0.41-0.45,0.41
			h-1.12c-0.3,0-0.45-0.14-0.45-0.41v-1.87C116.5,194.66,116.65,194.52,116.91,194.52z M119.82,129.82h0.9
			c0.3,0.03,0.45,0.17,0.45,0.41v2.28c0,0.28-0.15,0.41-0.45,0.41h-0.9c-0.3,0-0.45-0.14-0.45-0.41v-2.28
			C119.41,129.96,119.56,129.82,119.82,129.82z M119.82,138.32h0.9c0.3,0.03,0.45,0.17,0.45,0.41v26.96c0,0.73-0.52,1.56-1.57,2.49
			h-0.22v-29.45C119.41,138.46,119.56,138.32,119.82,138.32z M120.94,180.84l0.22,0.41v7.26c0,0.28-0.15,0.41-0.45,0.41h-0.9
			c-0.3,0-0.45-0.14-0.45-0.41v-5.18C119.37,182.67,119.89,181.84,120.94,180.84z M119.82,194.52h0.9c0.3,0.03,0.45,0.17,0.45,0.41
			v1.87c0,0.28-0.15,0.41-0.45,0.41h-0.9c-0.3,0-0.45-0.14-0.45-0.41v-1.87C119.41,194.66,119.56,194.52,119.82,194.52z
			 M122.06,130.03h1.57c0.3,0.03,0.45,0.17,0.45,0.41v2.07c0,0.28-0.15,0.41-0.45,0.41h-1.12c-0.3,0-0.45-0.14-0.45-0.41V130.03z
			 M122.51,138.32h1.12c0.3,0.03,0.45,0.17,0.45,0.41v22.81c0,0.73-0.6,1.69-1.79,2.9h-0.22v-25.72
			C122.09,138.46,122.24,138.32,122.51,138.32z M123.85,176.69l0.22,0.41v11.41c0,0.28-0.15,0.41-0.45,0.41h-1.12
			c-0.3,0-0.45-0.14-0.45-0.41v-9.54C123.1,177.45,123.7,176.69,123.85,176.69z M122.51,194.32h1.12c0.3,0.03,0.45,0.17,0.45,0.41
			v2.07c0,0.28-0.15,0.41-0.45,0.41h-1.12c-0.3,0-0.45-0.14-0.45-0.41v-2.07C122.09,194.45,122.24,194.32,122.51,194.32z
			 M125.19,130.03h1.34c0.3,0.03,0.45,0.17,0.45,0.41v2.07c0,0.28-0.15,0.41-0.45,0.41h-1.34c-0.3,0-0.45-0.14-0.45-0.41v-2.07
			C124.78,130.16,124.93,130.03,125.19,130.03z M125.19,138.32h1.34c0.3,0.03,0.45,0.17,0.45,0.41v19.29
			c-1.19,1.8-1.87,2.7-2.01,2.7h-0.22v-21.98C124.78,138.46,124.93,138.32,125.19,138.32z M126.53,172.54h0.45v15.97
			c0,0.28-0.15,0.41-0.45,0.41h-1.34c-0.3,0-0.45-0.14-0.45-0.41v-13.27C125.94,173.68,126.53,172.78,126.53,172.54z M125.19,194.32
			h1.34c0.3,0.03,0.45,0.17,0.45,0.41v2.07c0,0.28-0.15,0.41-0.45,0.41h-1.34c-0.3,0-0.45-0.14-0.45-0.41v-2.07
			C124.78,194.45,124.93,194.32,125.19,194.32z M145.78,129.82c2.27,0,4.36,0.9,6.27,2.7v3.32c0,0.28-0.15,0.41-0.45,0.41
			c-3.02-2.35-5.78-3.53-8.28-3.53c-1.94,0.14-3.51,0.21-4.7,0.21h-10.97c-0.3,0-0.45-0.14-0.45-0.41v-2.07
			c0.04-0.28,0.19-0.41,0.45-0.41C129.48,130.03,135.52,129.96,145.78,129.82z M127.65,138.32h12.53c0,0.69-3.66,6.22-10.97,16.59
			c-1.04,1.52-1.64,2.28-1.79,2.28h-0.22v-18.46C127.24,138.46,127.39,138.32,127.65,138.32z M141.97,150.76h0.22
			c0.45,0.1,0.82,0.59,1.12,1.45c0,1.42-0.08,2.52-0.22,3.32c0.15,5.53,0.22,9.54,0.22,12.03c0,2.94-0.08,9.51-0.22,19.7
			c0,1.11-0.52,1.66-1.57,1.66h-13.87c-0.3,0-0.45-0.14-0.45-0.41v-16.18c0-0.45,3.36-5.43,10.07-14.93
			C140.11,153.22,141.68,151.01,141.97,150.76z M151.82,191l0.22,0.41v3.32c-2.43,1.66-4.36,2.49-5.82,2.49h-15.44
			c-0.34,0-0.63-0.07-0.9-0.21c-0.26,0.14-0.56,0.21-0.9,0.21h-1.34c-0.3,0-0.45-0.14-0.45-0.41v-2.07
			c0.04-0.28,0.19-0.41,0.45-0.41h17.23C145.41,194.32,147.72,193.21,151.82,191z M152.49,132.72c0.45,0.14,1.12,0.62,2.01,1.45
			v58.9c-0.71,0.86-1.45,1.35-2.24,1.45v-2.49c0.04-2.35,0.19-3.53,0.45-3.53c0-0.14-0.08-0.21-0.22-0.21
			c-0.15-3.25-0.22-5.67-0.22-7.26v-32.35c0-3.04,0.07-6.71,0.22-10.99V132.72z M155.63,134.8c0,0.17,0.52,0.52,1.57,1.04
			c-0.15,9.61-0.22,16.87-0.22,21.78v20.32c0,2.8,0.07,7.02,0.22,12.65c-0.63,1.24-1.31,1.87-2.01,1.87v-57.24
			C155.21,134.93,155.36,134.8,155.63,134.8z"/>
		<path d="M108.52,236l0.22,0.41v4.15c-1.94,1.63-2.91,2.73-2.91,3.32c0.15,2.97,0.22,5.18,0.22,6.64v37.54
			c0,1.9-0.08,4.39-0.22,7.47c0,0.62,0.97,1.66,2.91,3.11v4.36c0,0.28-0.15,0.41-0.45,0.41h-3.13c-4.14,0-8.54-2.07-13.2-6.22
			c0-0.1-0.08-0.52-0.22-1.24c0.3-3.39,0.45-6.08,0.45-8.09v-35.88c0-3.01-0.15-5.77-0.45-8.3c0-2.28,2.69-4.42,8.06-6.43
			c0.67-0.69,1.34-1.04,2.01-1.04h5.15L108.52,236z M109.41,236h1.57c0.3,0.03,0.45,0.17,0.45,0.41v2.7
			c-0.19,0.38-0.93,0.86-2.24,1.45l-0.22-0.41v-3.73C109,236.14,109.15,236,109.41,236z M109.19,298.63
			c1.49,0.62,2.24,1.04,2.24,1.24v2.9c0,0.41-0.75,0.62-2.24,0.62l-0.22-0.41v-3.94L109.19,298.63z M112.55,236h0.9
			c0.3,0.03,0.45,0.17,0.45,0.41v2.07c0,0.24-0.52,0.45-1.57,0.62l-0.22-0.41v-2.28C112.14,236.14,112.29,236,112.55,236z
			 M112.32,300.08c1.04,0.17,1.57,0.38,1.57,0.62v2.07c0,0.28-0.15,0.41-0.45,0.41h-0.9c-0.3,0-0.45-0.14-0.45-0.41v-2.28
			L112.32,300.08z M115.46,236h0.67c0.3,0.03,0.45,0.17,0.45,0.41v1.87c0,0.28-0.15,0.41-0.45,0.41h-0.67
			c-0.3,0-0.45-0.14-0.45-0.41v-1.87C115.05,236.14,115.2,236,115.46,236z M115.46,300.5h0.67c0.3,0.03,0.45,0.17,0.45,0.41v1.87
			c0,0.28-0.15,0.41-0.45,0.41h-0.67c-0.3,0-0.45-0.14-0.45-0.41v-1.87C115.05,300.64,115.2,300.5,115.46,300.5z M116.13,244.5
			c0.3,0.03,0.45,0.17,0.45,0.41v49.36c0,0.28-0.15,0.41-0.45,0.41h-0.22c-0.3,0-0.45-0.14-0.45-0.41v-34.01
			c0-3.32,0.07-8.5,0.22-15.55L116.13,244.5z M117.92,236h1.12c0.3,0.03,0.45,0.17,0.45,0.41v1.87c0,0.28-0.15,0.41-0.45,0.41h-1.12
			c-0.3,0-0.45-0.14-0.45-0.41v-1.87C117.51,236.14,117.66,236,117.92,236z M118.81,244.3h0.22c0.3,0.03,0.45,0.17,0.45,0.41v49.77
			c0,0.28-0.15,0.41-0.45,0.41h-0.22c-0.78,0-1.23-0.21-1.34-0.62v-49.36C117.62,244.5,118.07,244.3,118.81,244.3z M119.26,300.29
			l0.22,0.41v2.07c0,0.28-0.15,0.41-0.45,0.41h-1.12c-0.3,0-0.45-0.14-0.45-0.41v-1.87C117.47,300.57,118.07,300.36,119.26,300.29z
			 M120.6,236h1.34c0.3,0.03,0.45,0.17,0.45,0.41v2.07c0,0.28-0.15,0.41-0.45,0.41h-1.34c-0.3,0-0.45-0.14-0.45-0.41v-2.07
			C120.19,236.14,120.34,236,120.6,236z M120.6,244.3h1.34c0.3,0.03,0.45,0.17,0.45,0.41v2.07c0,0.28-0.15,0.41-0.45,0.41h-1.79
			v-2.49C120.19,244.44,120.34,244.3,120.6,244.3z M120.6,291.79h1.12c0.22,0,0.45,0.21,0.67,0.62v2.07c0,0.28-0.15,0.41-0.45,0.41
			h-1.34c-0.3,0-0.45-0.14-0.45-0.41v-2.28C120.19,291.93,120.34,291.79,120.6,291.79z M120.6,300.29h1.34
			c0.3,0.03,0.45,0.17,0.45,0.41v2.07c0,0.28-0.15,0.41-0.45,0.41h-1.34c-0.3,0-0.45-0.14-0.45-0.41v-2.07
			C120.19,300.43,120.34,300.29,120.6,300.29z M123.06,236h21.48c0.15,0,0.22,0.07,0.22,0.21l0.45-0.21h1.79
			c0.3,0.03,0.45,0.17,0.45,0.41v2.07c0,0.28-0.15,0.41-0.45,0.41h-23.95c-0.3,0-0.45-0.14-0.45-0.41v-2.07
			C122.65,236.14,122.8,236,123.06,236z M123.06,244.3h23.95c0.3,0.03,0.45,0.17,0.45,0.41v2.07c0,0.28-0.15,0.41-0.45,0.41h-23.95
			c-0.3,0-0.45-0.14-0.45-0.41v-2.07C122.65,244.44,122.8,244.3,123.06,244.3z M123.06,292h23.95c0.3,0.03,0.45,0.17,0.45,0.41v2.07
			c0,0.28-0.15,0.41-0.45,0.41h-24.17l-0.22-1.45v-1.04C122.65,292.14,122.8,292,123.06,292z M123.06,300.29h23.95
			c0.3,0.03,0.45,0.17,0.45,0.41v2.07c0,0.28-0.15,0.41-0.45,0.41h-24.17l-0.22-1.45v-1.04
			C122.65,300.43,122.8,300.29,123.06,300.29z M148.13,236h1.34c0.3,0.03,0.45,0.17,0.45,0.41v2.28l-0.22,0.41
			c-1.34-0.17-2.01-0.38-2.01-0.62v-2.07C147.72,236.14,147.87,236,148.13,236z M148.13,244.3h1.34c0.3,0.03,0.45,0.17,0.45,0.41
			v2.07c0,0.28-0.15,0.41-0.45,0.41h-1.34c-0.3,0-0.45-0.14-0.45-0.41v-2.07C147.72,244.44,147.87,244.3,148.13,244.3z M148.13,292
			h1.34c0.3,0.03,0.45,0.17,0.45,0.41v2.07c0,0.28-0.15,0.41-0.45,0.41h-1.34c-0.3,0-0.45-0.14-0.45-0.41v-2.07
			C147.72,292.14,147.87,292,148.13,292z M148.13,300.29h1.34c0.3,0.03,0.45,0.17,0.45,0.41v2.07c0,0.28-0.15,0.41-0.45,0.41h-1.34
			c-0.3,0-0.45-0.14-0.45-0.41v-2.07C147.72,300.43,147.87,300.29,148.13,300.29z M151.04,236.21h1.12c0.3,0.03,0.45,0.17,0.45,0.41
			v10.16c0,0.28-0.15,0.41-0.45,0.41h-1.12c-0.3,0-0.45-0.14-0.45-0.41v-10.16C150.63,236.35,150.78,236.21,151.04,236.21z
			 M151.04,292h1.12c0.3,0.03,0.45,0.17,0.45,0.41v10.16c0,0.28-0.15,0.41-0.45,0.41h-1.12c-0.3,0-0.45-0.14-0.45-0.41v-10.16
			C150.63,292.14,150.78,292,151.04,292z M153.95,236.21h0.22c0.22,0,0.45,0.21,0.67,0.62c0.15,3.08,0.22,4.74,0.22,4.98
			c-0.15,2.52-0.22,4.11-0.22,4.77l-0.67,0.41h-0.22c-0.3,0-0.45-0.14-0.45-0.41v-9.95C153.54,236.35,153.69,236.21,153.95,236.21z
			 M153.5,292.2h0.67c0.22,0,0.45,0.21,0.67,0.62c0.15,3.08,0.22,4.74,0.22,4.98c-0.15,2.52-0.22,4.11-0.22,4.77l-0.67,0.41h-0.22
			c-0.3,0-0.45-0.14-0.45-0.41V292.2z"/>
		<path d="M95.01,342.29h8.78c0.3,0.03,0.45,0.17,0.45,0.41v66.47c0,0.28-0.15,0.41-0.45,0.41H91.65l-0.67-0.41
			c-0.15-14.76-0.22-25.53-0.22-32.3v-1.45c0-6.95,0.07-17.85,0.22-32.72C91.73,342.42,93.07,342.29,95.01,342.29z M105.13,342.29
			h1.34c0.3,0.03,0.45,0.17,0.45,0.41v2.07c0,0.35-0.6,0.55-1.79,0.62v7.52h-0.45V342.7C104.72,342.42,104.87,342.29,105.13,342.29z
			 M104.69,406.68h1.79c0.3,0.03,0.45,0.17,0.45,0.41v2.07c0,0.28-0.15,0.41-0.45,0.41h-1.34c-0.3,0-0.45-0.14-0.45-0.41V406.68z
			 M108.04,342.29h1.17c0.3,0.03,0.45,0.17,0.45,0.41v2.07c0,0.28-0.15,0.41-0.45,0.41h-1.17c-0.3,0-0.45-0.14-0.45-0.41v-2.07
			C107.67,342.42,107.82,342.29,108.04,342.29z M108.04,406.68h1.17c0.3,0.03,0.45,0.17,0.45,0.41v2.07c0,0.28-0.15,0.41-0.45,0.41
			h-1.17c-0.3,0-0.45-0.14-0.45-0.41v-2.07C107.67,406.82,107.82,406.68,108.04,406.68z M111.01,342.29h0.67
			c0.3,0.03,0.45,0.17,0.45,0.41v2.07c0,0.28-0.15,0.41-0.45,0.41h-0.67c-0.3,0-0.45-0.14-0.45-0.41v-2.07
			C110.6,342.42,110.75,342.29,111.01,342.29z M111.01,406.68h0.67c0.3,0.03,0.45,0.17,0.45,0.41v2.07c0,0.28-0.15,0.41-0.45,0.41
			h-0.67c-0.3,0-0.45-0.14-0.45-0.41v-2.07C110.6,406.82,110.75,406.68,111.01,406.68z M113.69,342.29h0.9
			c0.3,0.03,0.45,0.17,0.45,0.41v30.02h-0.45c-0.15-1.66-0.22-2.85-0.22-3.58V345.6l-1.12-0.83v-2.07
			C113.28,342.42,113.43,342.29,113.69,342.29z M114.59,378.74h0.45v30.43c0,0.28-0.15,0.41-0.45,0.41h-0.9
			c-0.3,0-0.45-0.14-0.45-0.41v-2.07c0-0.28,0.37-0.41,1.12-0.41v-24.37C114.37,381.55,114.44,380.36,114.59,378.74z M116.16,342.29
			c1.12,0,1.71,0.21,1.79,0.62v29.81c0,0.28-0.15,0.41-0.45,0.41h-1.34c-0.3,0-0.45-0.14-0.45-0.41V342.7
			C115.74,342.42,115.89,342.29,116.16,342.29z M117.5,378.32c0.3,0.03,0.45,0.17,0.45,0.41v30.43c0,0.28-0.15,0.41-0.45,0.41h-1.34
			c-0.3,0-0.45-0.14-0.45-0.41v-30.23C115.82,378.53,116.42,378.32,117.5,378.32z M142.67,342.29c0.3,0.03,0.45,0.17,0.45,0.41v2.07
			c0,0.28-0.15,0.41-0.45,0.41h-2.24c-7.53,16.66-11.88,25.77-13.04,27.32l-0.9,0.62h-5.15c-0.15,0-0.22-0.07-0.22-0.21l-0.5,0.21
			h-1.79c-0.3,0-0.45-0.14-0.45-0.41V342.7h0.45l0.22,2.49v12.7l0.22,1.04h0.22c4.66-9.75,7.44-15.29,8.34-16.64H142.67z
			 M118.84,378.32h1.79c0.15,0,0.22,0.07,0.22,0.21l0.5-0.21h1.12c3.43,0,5.15,0.21,5.15,0.62c5.11,11.03,9.53,20.27,13.26,27.74
			h1.79c0.3,0.03,0.45,0.17,0.45,0.41v2.07c0,0.28-0.15,0.41-0.45,0.41H128.3c-0.48,0-2.5-3.75-6.04-11.25
			c0-0.28-0.84-2.16-2.52-5.65h-0.45c-0.15,1.9-0.22,3.3-0.22,4.2v12.08c0,0.28-0.15,0.41-0.45,0.41h-0.22v-30.64
			C118.47,378.46,118.62,378.32,118.84,378.32z M142.67,360.85h0.45v8.71c0,0.35-0.75,2.3-2.24,5.86v0.41c0,0.45,0.75,2.32,2.24,5.6
			v9.18h-0.45c-0.3-0.83-2.61-5.76-6.94-14.78c0-0.35,2.31-5.13,6.94-14.36V360.85z M144.02,342.29h1.4
			c0.3,0.03,0.45,0.17,0.45,0.41v2.07c0,0.28-0.15,0.41-0.45,0.41h-1.4c-0.3,0-0.45-0.14-0.45-0.41v-2.07
			C143.64,342.42,143.79,342.29,144.02,342.29z M145.42,354.99h0.45v9.18c0,0.28-0.62,1.73-1.85,4.36h-0.45v-8.92L145.42,354.99z
			 M143.57,382.93h0.45l1.85,4.36v9.18h-0.45c-1.23-2.77-1.85-4.37-1.85-4.82V382.93z M144.02,406.68h1.4
			c0.3,0.03,0.45,0.17,0.45,0.41v2.07c0,0.28-0.15,0.41-0.45,0.41h-1.4c-0.3,0-0.45-0.14-0.45-0.41v-2.07
			C143.64,406.82,143.79,406.68,144.02,406.68z M146.98,342.29h0.9c0.3,0.03,0.45,0.17,0.45,0.41v2.07c0,0.28-0.15,0.41-0.45,0.41
			h-0.9c-0.3,0-0.45-0.14-0.45-0.41v-2.07C146.57,342.42,146.72,342.29,146.98,342.29z M147.88,349.6h0.45v9.59l-1.34,3.32h-0.45
			v-9.38L147.88,349.6z M146.53,388.95h0.45c0.9,2.07,1.34,3.32,1.34,3.73v9.18h-0.45l-1.34-3.53V388.95z M146.98,406.68h0.9
			c0.3,0.03,0.45,0.17,0.45,0.41v2.07c0,0.28-0.15,0.41-0.45,0.41h-0.9c-0.3,0-0.45-0.14-0.45-0.41v-2.07
			C146.57,406.82,146.72,406.68,146.98,406.68z M149.89,342.29h0.67c0.3,0.03,0.45,0.17,0.45,0.41v10.84c0,0.21-0.37,1.18-1.12,2.9
			h-0.45v-9.8l0.45-1.45c-0.3,0-0.45-0.14-0.45-0.41v-2.07C149.48,342.42,149.63,342.29,149.89,342.29z M149.44,395.02h0.45
			c0.75,1.66,1.12,2.63,1.12,2.9v11.25c0,0.28-0.15,0.41-0.45,0.41h-0.67c-0.3,0-0.45-0.14-0.45-0.41v-2.07
			c0-0.28,0.22-0.41,0.67-0.41c-0.45-0.93-0.67-1.56-0.67-1.87V395.02z M152.35,342.29h1.12c0.3,0.03,0.45,0.17,0.45,0.41v4.56
			c0,0.97-0.6,2.3-1.79,3.99h-0.22v-8.55C151.94,342.42,152.09,342.29,152.35,342.29z M151.91,400.2h0.22
			c0.34,0,0.93,1.24,1.79,3.73v5.24c0,0.28-0.15,0.41-0.45,0.41h-1.12c-0.3,0-0.45-0.14-0.45-0.41V400.2z M155.04,342.29h0.22
			c0.45,0.14,0.67,0.55,0.67,1.24c-0.6,1.56-0.9,2.38-0.9,2.49h-0.45v-3.32C154.67,342.42,154.81,342.29,155.04,342.29z
			 M154.59,405.85h0.45c0,0.31,0.45,1.42,1.34,3.32c-0.37,0.28-0.6,0.41-0.67,0.41h-0.67c-0.3,0-0.45-0.14-0.45-0.41V405.85z"/>
		<path d="M88.85,448.16h5.37c0.3,0.03,0.45,0.17,0.45,0.41v10.37c0,0.28-0.15,0.41-0.45,0.41h-2.24c-2.54,0-3.8-0.35-3.8-1.04
			l-0.22-2.49c0.15-2.73,0.22-5.15,0.22-7.26L88.85,448.16z M95.34,448.16h1.34c0.3,0.03,0.45,0.17,0.45,0.41v10.37
			c0,0.28-0.15,0.41-0.45,0.41h-1.34c-0.3,0-0.45-0.14-0.45-0.41v-10.37C94.93,448.3,95.08,448.16,95.34,448.16z M98.25,448.16h1.12
			c0.3,0.03,0.45,0.17,0.45,0.41v10.37c0,0.28-0.15,0.41-0.45,0.41h-1.12c-0.3,0-0.45-0.14-0.45-0.41v-10.37
			C97.84,448.3,97.99,448.16,98.25,448.16z M101.16,448.16h0.9c0.3,0.03,0.45,0.17,0.45,0.41c0,0.86-0.15,2.94-0.45,6.22
			c0.3,1.31,0.45,2.35,0.45,3.11v1.04c0,0.28-0.15,0.41-0.45,0.41h-0.9c-0.3,0-0.45-0.14-0.45-0.41v-10.37
			C100.75,448.3,100.9,448.16,101.16,448.16z M103.85,448.16h1.12c0.3,0.03,0.45,0.17,0.45,0.41v2.07c0,0.28-0.15,0.41-0.45,0.41
			h-1.12c-0.3,0-0.45-0.14-0.45-0.41v-2.07C103.44,448.3,103.59,448.16,103.85,448.16z M103.85,456.46h1.12
			c0.3,0.03,0.45,0.17,0.45,0.41v2.07c0,0.28-0.15,0.41-0.45,0.41h-1.12c-0.3,0-0.45-0.14-0.45-0.41v-2.07
			C103.44,456.59,103.59,456.46,103.85,456.46z M106.53,448.16h1.34c0.3,0.03,0.45,0.17,0.45,0.41v2.07c0,0.28-0.15,0.41-0.45,0.41
			h-1.34c-0.3,0-0.45-0.14-0.45-0.41v-2.07C106.12,448.3,106.27,448.16,106.53,448.16z M106.53,456.46h1.34
			c0.3,0.03,0.45,0.17,0.45,0.41v2.07c0,0.28-0.15,0.41-0.45,0.41h-1.34c-0.3,0-0.45-0.14-0.45-0.41v-2.07
			C106.12,456.59,106.27,456.46,106.53,456.46z M108.99,448.16h23.95c0.3,0.03,0.45,0.17,0.45,0.41v2.07c0,0.28-0.15,0.41-0.45,0.41
			h-1.34c-0.45,0-0.67-0.07-0.67-0.21l-1.12,0.21h-17.68c-0.34,0-0.63-0.07-0.9-0.21c-0.26,0.14-0.56,0.21-0.9,0.21h-1.34
			c-0.3,0-0.45-0.14-0.45-0.41v-2.07C108.58,448.3,108.73,448.16,108.99,448.16z M108.99,456.46h13.43c0.9,0,1.34,0.55,1.34,1.66
			c0.15,0.73,0.22,2.04,0.22,3.94v34.63c0,3.8,0.07,9.13,0.22,15.97l1.12,0.21h6.27l1.57-0.21l0.22,0.41v2.28
			c0,0.28-0.15,0.41-0.45,0.41h-16.78c-3.88,0-5.82-0.21-5.82-0.62l-0.22-0.41c0-2.45-0.08-7.5-0.22-15.14
			c0-3.84,0.07-12.13,0.22-24.89c-0.15-5.56-0.22-10.27-0.22-14.1c0-0.9-0.45-1.38-1.34-1.45v-2.28
			C108.58,456.59,108.73,456.46,108.99,456.46z M134.06,448.16h1.34c0.3,0.03,0.45,0.17,0.45,0.41v2.07c0,0.28-0.15,0.41-0.45,0.41
			h-1.34c-0.3,0-0.45-0.14-0.45-0.41v-2.07C133.65,448.3,133.8,448.16,134.06,448.16z M134.95,456.46h0.45
			c0.3,0.03,0.45,0.17,0.45,0.41v58.28c-0.15,0.41-0.6,0.62-1.34,0.62h-0.45c-0.3,0-0.45-0.14-0.45-0.41v-58.28
			C133.76,456.66,134.21,456.46,134.95,456.46z M136.97,448.16h1.12c0.3,0.03,0.45,0.17,0.45,0.41v2.07c0,0.28-0.15,0.41-0.45,0.41
			h-1.12c-0.3,0-0.45-0.14-0.45-0.41v-2.07C136.56,448.3,136.71,448.16,136.97,448.16z M136.97,456.46h1.12
			c0.3,0,0.45,0.21,0.45,0.62c-0.45,5.63-0.67,11.16-0.67,16.59v7.67c0,0.14-0.08,0.21-0.22,0.21l0.22,0.41v26.75
			c0,1.45-0.08,3.66-0.22,6.64l-0.45,0.21h-0.22c-0.3,0-0.45-0.14-0.45-0.41v-58.28C136.56,456.59,136.71,456.46,136.97,456.46z
			 M139.88,448.16h0.67c0.3,0.03,0.45,0.17,0.45,0.41v2.07c0,0.28-0.15,0.41-0.45,0.41h-0.67c-0.3,0-0.45-0.14-0.45-0.41v-2.07
			C139.47,448.3,139.62,448.16,139.88,448.16z M139.88,456.46h0.67c0.3,0.03,0.45,0.17,0.45,0.41v2.07c0,0.28-0.15,0.41-0.45,0.41
			h-0.67c-0.3,0-0.45-0.14-0.45-0.41v-2.07C139.47,456.59,139.62,456.46,139.88,456.46z M142.56,448.16h0.9
			c0.3,0.03,0.45,0.17,0.45,0.41v2.07c0,0.28-0.15,0.41-0.45,0.41h-0.9c-0.3,0-0.45-0.14-0.45-0.41v-2.07
			C142.15,448.3,142.3,448.16,142.56,448.16z M142.56,456.46h0.9c0.3,0.03,0.45,0.17,0.45,0.41v2.07c0,0.28-0.15,0.41-0.45,0.41
			h-0.9c-0.3,0-0.45-0.14-0.45-0.41v-2.07C142.15,456.59,142.3,456.46,142.56,456.46z M145.02,448.16h1.57
			c0.3,0.03,0.45,0.17,0.45,0.41v2.07c0,0.28-0.15,0.41-0.45,0.41h-1.57c-0.3,0-0.45-0.14-0.45-0.41v-2.07
			C144.61,448.3,144.76,448.16,145.02,448.16z M145.02,456.46h1.57c0.3,0.03,0.45,0.17,0.45,0.41v2.07c0,0.28-0.15,0.41-0.45,0.41
			h-1.57c-0.3,0-0.45-0.14-0.45-0.41v-2.07C144.61,456.59,144.76,456.46,145.02,456.46z M147.71,448.16h1.79
			c0.15,0,0.22,0.07,0.22,0.21l0.45-0.21h6.71c1.94,0,2.91,0.35,2.91,1.04c0.15,1.07,0.22,2.25,0.22,3.53v3.11
			c0,2.21-0.45,3.32-1.34,3.32c-1.16,0.14-2.43,0.21-3.8,0.21h-4.7c-0.15,0-0.22-0.07-0.22-0.21l-0.45,0.21h-1.79
			c-0.3,0-0.45-0.14-0.45-0.41v-2.07c0.04-0.28,0.19-0.41,0.45-0.41h1.79c0.15,0,0.22,0.07,0.22,0.21l0.45-0.21h2.69
			c1.49,0,2.24-0.21,2.24-0.62c0.15-0.55,0.22-1.11,0.22-1.66v-1.04l-0.22-2.07h-4.92c-0.15,0-0.22-0.07-0.22-0.21l-0.45,0.21h-1.79
			c-0.3,0-0.45-0.14-0.45-0.41v-2.07C147.3,448.3,147.45,448.16,147.71,448.16z"/>
		<path d="M99.54,554.76h13.2c0.3,0.03,0.45,0.17,0.45,0.41v2.07c0,0.28-0.15,0.41-0.45,0.41h-1.34c-3.73,0.9-6.42,2.42-8.06,4.56
			c0.15,5.22,0.22,9.16,0.22,11.82v44.8l1.12,0.21h6.94l1.57-0.21v2.7c0,0.28-0.15,0.41-0.45,0.41H96.63
			c-1.49,0-3.73-0.07-6.71-0.21c0-0.14-0.08-0.21-0.22-0.21c-0.15-10.09-0.22-17.84-0.22-23.23v-26.34c0-2.52-0.08-6.05-0.22-10.58
			c0-1,2.69-2.87,8.06-5.6C97.3,555.45,98.05,555.1,99.54,554.76z M113.86,554.76h1.34c0.3,0.03,0.45,0.17,0.45,0.41v1.87
			c0,0.28-0.15,0.41-0.45,0.41h-1.34c-0.3,0-0.45-0.14-0.45-0.41v-1.87C113.45,554.9,113.6,554.76,113.86,554.76z M113.86,563.05
			h1.34c0.3,0.03,0.45,0.17,0.45,0.41v21.57c0,0.28-0.15,0.41-0.45,0.41h-1.34c-0.3,0-0.45-0.14-0.45-0.41v-21.57
			C113.45,563.19,113.6,563.05,113.86,563.05z M115.43,590.84l0.22,0.41v30.07c0,0.35-0.67,0.55-2.01,0.62l-0.22-0.41v-30.07
			C113.41,591.15,114.09,590.95,115.43,590.84z M116.77,554.76h1.12c0.3,0.03,0.45,0.17,0.45,0.41v1.87c0,0.28-0.15,0.41-0.45,0.41
			h-1.12c-0.3,0-0.45-0.14-0.45-0.41v-1.87C116.36,554.9,116.51,554.76,116.77,554.76z M116.77,563.05h1.12
			c0.3,0.03,0.45,0.17,0.45,0.41v21.57c0,0.28-0.15,0.41-0.45,0.41h-1.12c-0.3,0-0.45-0.14-0.45-0.41v-21.57
			C116.36,563.19,116.51,563.05,116.77,563.05z M116.77,590.84h1.12c0.3,0.03,0.45,0.17,0.45,0.41v1.04
			c-0.45,3.04-0.67,5.6-0.67,7.67v17.42c0,2.9-0.22,4.36-0.67,4.36h-0.22c-0.3,0-0.45-0.14-0.45-0.41v-30.07
			C116.36,590.98,116.51,590.84,116.77,590.84z M119.68,554.76h0.9c0.3,0.03,0.45,0.17,0.45,0.41v2.07c0,0.28-0.15,0.41-0.45,0.41
			h-0.9c-0.3,0-0.45-0.14-0.45-0.41v-2.07C119.27,554.9,119.42,554.76,119.68,554.76z M119.68,563.05h0.9
			c0.3,0.03,0.45,0.17,0.45,0.41v21.57c0,0.28-0.15,0.41-0.45,0.41h-0.9c-0.3,0-0.45-0.14-0.45-0.41v-21.57
			C119.27,563.19,119.42,563.05,119.68,563.05z M119.68,590.84h0.9c0.3,0.03,0.45,0.17,0.45,0.41v2.07c0,0.28-0.15,0.41-0.45,0.41
			h-0.9c-0.3,0-0.45-0.14-0.45-0.41v-2.07C119.27,590.98,119.42,590.84,119.68,590.84z M122.37,554.76h1.12
			c0.3,0.03,0.45,0.17,0.45,0.41v2.07c0,0.28-0.15,0.41-0.45,0.41h-1.12c-0.3,0-0.45-0.14-0.45-0.41v-2.07
			C121.95,554.9,122.1,554.76,122.37,554.76z M122.37,563.05h1.12c0.3,0.03,0.45,0.17,0.45,0.41v21.78c0,0.28-0.15,0.41-0.45,0.41
			h-1.12c-0.3,0-0.45-0.14-0.45-0.41v-21.78C121.95,563.19,122.1,563.05,122.37,563.05z M122.37,590.84h1.12
			c0.3,0.03,0.45,0.17,0.45,0.41v2.07c0,0.28-0.15,0.41-0.45,0.41h-1.12c-0.3,0-0.45-0.14-0.45-0.41v-2.07
			C121.95,590.98,122.1,590.84,122.37,590.84z M125.05,554.76h1.34c0.3,0.03,0.45,0.17,0.45,0.41v2.07c0,0.28-0.15,0.41-0.45,0.41
			h-1.34c-0.3,0-0.45-0.14-0.45-0.41v-2.07C124.64,554.9,124.79,554.76,125.05,554.76z M125.05,563.05h1.34
			c0.3,0.03,0.45,0.17,0.45,0.41v21.78c0,0.28-0.15,0.41-0.45,0.41h-1.34c-0.3,0-0.45-0.14-0.45-0.41v-21.78
			C124.64,563.19,124.79,563.05,125.05,563.05z M125.05,590.84h1.34c0.3,0.03,0.45,0.17,0.45,0.41v2.07c0,0.28-0.15,0.41-0.45,0.41
			h-1.34c-0.3,0-0.45-0.14-0.45-0.41v-2.07C124.64,590.98,124.79,590.84,125.05,590.84z M145.42,554.55c2.24,0,4.4,0.9,6.49,2.7
			v3.32l-0.22,0.41c-3.1-2.35-6.38-3.53-9.85-3.53c-2.8,0-7.65,0.14-14.55,0.41l-0.22-0.41v-2.28c0.04-0.28,0.19-0.41,0.45-0.41
			h1.79C133.14,554.76,138.51,554.69,145.42,554.55z M127.51,563.05h10.52c3.13,0,4.7,0.21,4.7,0.62v10.16
			c0,1.07,0.07,2.04,0.22,2.9c-0.15,0.66-0.22,1.56-0.22,2.7v3.73c0,1.52-0.22,2.28-0.67,2.28h-1.79c-2.28,0-5.78,0.07-10.52,0.21
			v-0.21l-0.45,0.21h-1.79c-0.3,0-0.45-0.14-0.45-0.41v-21.78C127.1,563.19,127.25,563.05,127.51,563.05z M127.51,590.84h11.64
			c2.39,0,3.58,0.21,3.58,0.62v16.59c0,2.18,0.07,5.77,0.22,10.78l1.12,0.21h7.38c0.3,0.03,0.45,0.17,0.45,0.41v2.07
			c0,0.28-0.15,0.41-0.45,0.41h-16.11c-1.27,0-3.28-0.07-6.04-0.21l-0.45-0.83c0-2.52-0.08-5.7-0.22-9.54
			c0.15-7.4,0.22-13.27,0.22-17.63h-1.34c-0.3,0-0.45-0.14-0.45-0.41v-2.07C127.1,590.98,127.25,590.84,127.51,590.84z
			 M152.58,557.45l1.79,1.66v62.22c-0.15,0.41-0.6,0.62-1.34,0.62h-0.45c-0.3,0-0.45-0.14-0.45-0.41v-50.4
			c0-2.94,0.15-5.43,0.45-7.47c-0.3-1.11-0.45-2.28-0.45-3.53v-2.28C152.17,557.59,152.32,557.45,152.58,557.45z M155.04,559.74
			h0.45l1.57,0.83c-0.15,7.05-0.22,12.58-0.22,16.59v38.78c0,1.18-0.08,3.04-0.22,5.6l-0.45,0.21h-0.67c-0.3,0-0.45-0.14-0.45-0.41
			V559.74z"/>
		<path d="M94.81,660.84h19.02c0.3,0.03,0.45,0.17,0.45,0.41v2.07c0,0.28-0.15,0.41-0.45,0.41h-5.15c-0.3,0.03-0.45,0.17-0.45,0.41
			v4.77l2.24,0.21h1.34l2.24-0.21l0.22,0.41v50.6c0,0.28-0.15,0.41-0.45,0.41h-2.91l-2.69,0.21v4.98h3.13
			c0.15,0,0.22,0.07,0.22,0.21c0.15,0,0.22-0.07,0.22-0.21c1.64,0.14,2.46,0.35,2.46,0.62v2.07c0,0.28-0.15,0.41-0.45,0.41h-1.79
			c-0.15,0-0.22-0.07-0.22-0.21l-0.45,0.21H94.81c-0.45,0-0.67-1.11-0.67-3.32v-4.56c0-2.21,0.22-3.32,0.67-3.32h14.1
			c0.15-1.62,0.22-2.8,0.22-3.53v-10.16c0-2.04,0.07-3.42,0.22-4.15c-0.15-1.45-0.22-3.04-0.22-4.77v-22.81H95.71
			c-1.04,0-1.57-0.9-1.57-2.7v-5.18C94.14,661.94,94.36,660.84,94.81,660.84z M114.95,660.84h1.57c0.3,0.03,0.45,0.17,0.45,0.41
			v2.07c0,0.28-0.15,0.41-0.45,0.41h-1.57c-0.3,0-0.45-0.14-0.45-0.41v-2.07C114.54,660.97,114.69,660.84,114.95,660.84z
			 M114.95,668.92h1.57c0.3,0.03,0.45,0.17,0.45,0.41v50.6c0,0.28-0.15,0.41-0.45,0.41h-1.57c-0.3,0-0.45-0.14-0.45-0.41v-50.6
			C114.54,669.06,114.69,668.92,114.95,668.92z M114.95,725.75h1.57c0.3,0.03,0.45,0.17,0.45,0.41v2.07c0,0.28-0.15,0.41-0.45,0.41
			h-1.57c-0.3,0-0.45-0.14-0.45-0.41v-2.07C114.54,725.89,114.69,725.75,114.95,725.75z M118.09,660.84h0.9
			c0.3,0.03,0.45,0.17,0.45,0.41v2.07c0,0.28-0.15,0.41-0.45,0.41h-0.9c-0.3,0-0.45-0.14-0.45-0.41v-2.07
			C117.67,660.97,117.82,660.84,118.09,660.84z M118.09,668.92h0.9c0.3,0.03,0.45,0.17,0.45,0.41v50.6c0,0.28-0.15,0.41-0.45,0.41
			h-0.9c-0.3,0-0.45-0.14-0.45-0.41v-50.6C117.67,669.06,117.82,668.92,118.09,668.92z M118.09,725.75h0.9
			c0.3,0.03,0.45,0.17,0.45,0.41v2.07c0,0.28-0.15,0.41-0.45,0.41h-0.9c-0.3,0-0.45-0.14-0.45-0.41v-2.07
			C117.67,725.89,117.82,725.75,118.09,725.75z M120.99,660.84h0.67c0.3,0.03,0.45,0.17,0.45,0.41v2.07c0,0.28-0.15,0.41-0.45,0.41
			h-0.67c-0.3,0-0.45-0.14-0.45-0.41v-2.07C120.58,660.97,120.73,660.84,120.99,660.84z M120.99,669.13h0.67
			c0.3,0.03,0.45,0.17,0.45,0.41v50.4c0,0.28-0.15,0.41-0.45,0.41h-0.67c-0.3,0-0.45-0.14-0.45-0.41v-50.4
			C120.58,669.27,120.73,669.13,120.99,669.13z M120.99,725.75h0.67c0.3,0.03,0.45,0.17,0.45,0.41v2.07c0,0.28-0.15,0.41-0.45,0.41
			h-0.67c-0.3,0-0.45-0.14-0.45-0.41v-2.07C120.58,725.89,120.73,725.75,120.99,725.75z M123.46,660.84h1.12
			c0.3,0.03,0.45,0.17,0.45,0.41v2.07c0,0.28-0.15,0.41-0.45,0.41h-1.12c-0.3,0-0.45-0.14-0.45-0.41v-2.07
			C123.05,660.97,123.2,660.84,123.46,660.84z M123.01,669.75h0.45v43.97h-0.45V669.75z M123.46,725.75h1.12
			c0.3,0.03,0.45,0.17,0.45,0.41v2.07c0,0.28-0.15,0.41-0.45,0.41h-1.12c-0.3,0-0.45-0.14-0.45-0.41v-2.07
			C123.05,725.89,123.2,725.75,123.46,725.75z M126.14,660.84h1.34c0.3,0.03,0.45,0.17,0.45,0.41v2.07c0,0.28-0.15,0.41-0.45,0.41
			h-1.34c-0.3,0-0.45-0.14-0.45-0.41v-2.07C125.73,660.97,125.88,660.84,126.14,660.84z M126.14,725.75h1.34
			c0.3,0.03,0.45,0.17,0.45,0.41v2.07c0,0.28-0.15,0.41-0.45,0.41h-1.34c-0.3,0-0.45-0.14-0.45-0.41v-2.07
			C125.73,725.89,125.88,725.75,126.14,725.75z M128.6,660.84h22.6c0.9,0.48,1.34,1.11,1.34,1.87v5.39c0,2.49-0.3,3.73-0.9,3.73
			l-1.12,0.21v-0.21l-0.45,0.21h-8.95c-0.75,0-1.87-0.07-3.36-0.21c-0.3,5.01-0.45,9.64-0.45,13.9v31.52l1.57,0.21h12.76
			c0.22,0,0.45,0.21,0.67,0.62c0.15,2.94,0.22,4.67,0.22,5.18c-0.15,2.56-0.22,4.15-0.22,4.77c-0.3,0.03-0.45,0.17-0.45,0.41
			c-6.86,0.14-12.08,0.21-15.66,0.21h-7.61c-0.3,0-0.45-0.14-0.45-0.41v-2.07c0.04-0.28,0.19-0.41,0.45-0.41h8.73
			c2.16,0,5.52-0.07,10.07-0.21c0.11-0.24,0.26-1.07,0.45-2.49c-0.11-1.8-0.34-2.7-0.67-2.7h-12.08c-1.64,0-2.46-0.21-2.46-0.62
			v-26.55c0-1.45-0.08-2.97-0.22-4.56c0.15-0.55,0.22-1.8,0.22-3.73v-2.28c0-9.13,0.3-13.69,0.9-13.69h0.22
			c2.69,0,5.74,0.07,9.18,0.21c1.68-0.14,3.17-0.21,4.48-0.21l0.22-0.41v-4.15c-0.15-0.41-0.6-0.62-1.34-0.62H128.6
			c-0.3,0-0.45-0.14-0.45-0.41v-2.07C128.19,660.97,128.34,660.84,128.6,660.84z"/>
		<path d="M95.04,767.02h8.95c0.3,0.03,0.45,0.17,0.45,0.41v66.99l-0.22,0.41l-2.24-0.21h-6.94l-0.45-0.21
			c-0.15-6.39-0.22-11.37-0.22-14.93v-51.85C94.36,767.43,94.59,767.23,95.04,767.02z M105.11,767.02h1.34
			c0.3,0.03,0.45,0.17,0.45,0.41v66.99c0,0.28-0.15,0.41-0.45,0.41h-1.34c-0.3,0-0.45-0.14-0.45-0.41v-66.99
			C104.7,767.16,104.84,767.02,105.11,767.02z M108.02,767.02h1.12c0.3,0.03,0.45,0.17,0.45,0.41v2.07l-1.12,0.83v53.09
			c0,2.04,0.07,4.8,0.22,8.3c0.6,0,0.9,0.14,0.9,0.41v2.28c0,0.28-0.15,0.41-0.45,0.41h-1.12c-0.3,0-0.45-0.14-0.45-0.41v-66.99
			C107.6,767.16,107.75,767.02,108.02,767.02z M110.92,767.02h0.67c0.3,0.03,0.45,0.17,0.45,0.41v2.07c0,0.28-0.15,0.41-0.45,0.41
			h-0.67c-0.3,0-0.45-0.14-0.45-0.41v-2.07C110.51,767.16,110.66,767.02,110.92,767.02z M110.92,831.72h0.67
			c0.3,0.03,0.45,0.17,0.45,0.41v2.28c0,0.28-0.15,0.41-0.45,0.41h-0.67c-0.3,0-0.45-0.14-0.45-0.41v-2.28
			C110.51,831.86,110.66,831.72,110.92,831.72z M113.61,767.02h0.9c0.3,0.03,0.45,0.17,0.45,0.41v2.07c0,0.28-0.15,0.41-0.45,0.41
			h-0.9c-0.3,0-0.45-0.14-0.45-0.41v-2.07C113.2,767.16,113.35,767.02,113.61,767.02z M113.61,831.93h0.9
			c0.3,0.03,0.45,0.17,0.45,0.41v2.07c0,0.28-0.15,0.41-0.45,0.41h-0.9c-0.3,0-0.45-0.14-0.45-0.41v-2.07
			C113.2,832.07,113.35,831.93,113.61,831.93z M116.07,767.02h1.57c0.3,0.03,0.45,0.17,0.45,0.41v11.61h-0.45v-6.64l-0.22-2.49
			h-1.34c-0.3,0-0.45-0.14-0.45-0.41v-2.07C115.66,767.16,115.81,767.02,116.07,767.02z M116.07,831.93h1.57
			c0.3,0.03,0.45,0.17,0.45,0.41v2.07c0,0.28-0.15,0.41-0.45,0.41h-1.57c-0.3,0-0.45-0.14-0.45-0.41v-2.07
			C115.66,832.07,115.81,831.93,116.07,831.93z M117.64,779.46h0.45v3.32h-0.45V779.46z M117.64,804.56h0.45v21.36h-0.45V804.56z
			 M118.76,767.02c1.75,0,2.95,0.14,3.58,0.41c0.15,9.61,0.22,16.87,0.22,21.78v34.22c2.01,0.14,3.51,0.21,4.48,0.21h15.44
			c0.3,0.03,0.45,0.17,0.45,0.41v2.07c0,0.28-0.15,0.41-0.45,0.41h-1.79c-0.15,0-0.22-0.07-0.22-0.21l-0.45,0.21h-15.44
			c-1.27,0-3.28-0.07-6.04-0.21l-0.22-0.41v-58.48C118.35,767.16,118.5,767.02,118.76,767.02z M118.76,831.93h1.79
			c0.15,0,0.22,0.07,0.22,0.21l0.45-0.21h21.26c0.3,0.03,0.45,0.17,0.45,0.41v2.07c0,0.28-0.15,0.41-0.45,0.41h-1.79
			c-0.15,0-0.22-0.07-0.22-0.21l-0.45,0.21h-18.8c-0.15,0-0.22-0.07-0.22-0.21l-0.45,0.21h-1.79c-0.3,0-0.45-0.14-0.45-0.41v-2.07
			C118.35,832.07,118.5,831.93,118.76,831.93z M143.82,823.64h1.34c0.3,0.03,0.45,0.17,0.45,0.41v2.07c0,0.28-0.15,0.41-0.45,0.41
			h-1.34c-0.3,0-0.45-0.14-0.45-0.41v-2.07C143.41,823.77,143.56,823.64,143.82,823.64z M144.04,831.72h1.12
			c0.3,0.03,0.45,0.17,0.45,0.41v2.07c0,0.24-0.67,0.45-2.01,0.62l-0.22-0.41v-2.07C143.37,832.14,143.6,831.93,144.04,831.72z
			 M146.73,823.64h1.12c0.3,0.03,0.45,0.17,0.45,0.41v4.36h-0.45v-1.45l-1.57-0.83v-2.07C146.32,823.77,146.47,823.64,146.73,823.64
			z M147.85,830.07h0.45v4.15c0,0.28-0.15,0.41-0.45,0.41h-1.12c-0.3,0-0.45-0.14-0.45-0.41v-2.07c0.04-0.28,0.19-0.41,0.45-0.41
			h1.12V830.07z M149.64,823.64h0.67c0.3,0.03,0.45,0.17,0.45,0.41v10.16c0,0.28-0.15,0.41-0.45,0.41h-0.67
			c-0.3,0-0.45-0.14-0.45-0.41v-10.16C149.23,823.77,149.38,823.64,149.64,823.64z M151.88,823.84h0.22l0.45,0.21
			c0.15,2.94,0.22,4.67,0.22,5.18c-0.15,2.94-0.22,4.67-0.22,5.18l-0.45,0.21l-0.22-0.41V823.84z"/>
	</g>
	<g>
		<path d="M9.19,131.62h0.67c0.3,0.03,0.45,0.17,0.45,0.41v10.06c0,0.28-0.15,0.41-0.45,0.41H9.19c-0.3,0-0.45-0.14-0.45-0.41
			v-10.06C8.78,131.76,8.93,131.62,9.19,131.62z M11.82,131.62h0.9c0.3,0.03,0.45,0.17,0.45,0.41v10.27c0,0.28-0.15,0.41-0.45,0.41
			h-0.9c-0.26,0-0.39-0.14-0.39-0.41v-10.27C11.47,131.76,11.6,131.62,11.82,131.62z M14.28,131.62h1.34
			c0.3,0.03,0.45,0.17,0.45,0.41v10.27c0,0.28-0.15,0.41-0.45,0.41h-1.34c-0.3,0-0.45-0.14-0.45-0.41v-10.27
			C13.87,131.76,14.02,131.62,14.28,131.62z M40.69,131.2l0.22,0.41v2.28c0,0.28-0.82,0.47-2.46,0.57v-0.21L38,134.47h-15.5
			c0,0.31-0.07,0.59-0.22,0.83c0.15,1.52,0.22,2.83,0.22,3.94v0.57h17.96c0.3,0.07,0.45,0.21,0.45,0.41v57.97
			c0,0.28-0.15,0.41-0.45,0.41h-1.12c-2.2,0-5.17-0.07-8.9-0.21c0-0.28-0.15-0.41-0.45-0.41c-0.11-11.34-0.17-19.22-0.17-23.64
			c0-5.29,0.06-14.47,0.17-27.53c-0.11-1.24-0.17-2.61-0.17-4.1h-0.22c-1.57,0-3.93-0.07-7.11-0.21c-1.49,0.14-2.61,0.21-3.36,0.21
			v-0.21l-0.45,0.21h-1.73c-0.3,0-0.45-0.14-0.45-0.41v-10.27c0.04-0.28,0.19-0.41,0.45-0.41h2.18
			C27.95,131.62,35.13,131.48,40.69,131.2z M41.58,131.2h1.51c0.3,0.03,0.45,0.17,0.45,0.41v2.28c0,0.24-0.15,0.36-0.45,0.36h-1.51
			c-0.3,0-0.45-0.12-0.45-0.36v-2.28C41.17,131.34,41.32,131.2,41.58,131.2z M41.58,139.81h1.51c0.3,0.07,0.45,0.21,0.45,0.41v57.97
			c0,0.28-0.15,0.41-0.45,0.41h-1.51c-0.3,0-0.45-0.14-0.45-0.41v-57.97C41.17,139.95,41.32,139.81,41.58,139.81z M44.44,131.2
			c1.04,0.14,1.57,0.35,1.57,0.62v2.23c0,0.28-0.15,0.41-0.45,0.41c-0.78,0-1.23-0.19-1.34-0.57v-2.28L44.44,131.2z M44.44,195.55
			c1.04,0.14,1.57,0.33,1.57,0.57v2.07c0,0.28-0.15,0.41-0.45,0.41h-0.9c-0.3,0-0.45-0.14-0.45-0.41v-2.28L44.44,195.55z
			 M47.35,131.41c0.86,0.17,1.29,0.38,1.29,0.62v2.85l-0.22,0.41c-0.86-0.31-1.29-0.59-1.29-0.83v-2.64L47.35,131.41z M47.57,195.75
			h0.62c0.3,0.03,0.45,0.16,0.45,0.36v2.07c0,0.28-0.15,0.41-0.45,0.41h-0.62c-0.3,0-0.45-0.14-0.45-0.41v-2.07
			C47.16,195.87,47.31,195.75,47.57,195.75z M49.75,132.24c1.01,0.38,1.6,0.8,1.79,1.24v3.06c0,0.28-0.15,0.41-0.45,0.41l-1.57-1.24
			v-3.06L49.75,132.24z M49.98,195.75h1.12c0.3,0.03,0.45,0.16,0.45,0.36v2.07c0,0.28-0.15,0.41-0.45,0.41h-1.12
			c-0.3,0-0.45-0.14-0.45-0.41v-2.07C49.6,195.87,49.75,195.75,49.98,195.75z M52.21,133.9h0.45c1.16,0.59,1.73,0.99,1.73,1.19v63.1
			c0,0.28-0.13,0.41-0.39,0.41h-1.34c-0.3,0-0.45-0.14-0.45-0.41v-2.07c0-0.24,0.22-0.36,0.67-0.36c0.15-7.15,0.22-12.77,0.22-16.85
			v-28.36c0-2.8,0.07-6.64,0.22-11.51c0-0.14-0.37-0.62-1.12-1.45V133.9z M54.62,135.3h0.67c1.94,0.86,2.91,2.25,2.91,4.15
			c-0.3,3.11-0.45,5.5-0.45,7.15v40.29c0,2.56-0.07,6.33-0.22,11.3l-0.67,0.41h-1.79c-0.3,0-0.45-0.14-0.45-0.41V135.3z"/>
		<path d="M175.3,131.62h0.67c0.3,0.03,0.45,0.17,0.45,0.41v10.06c0,0.28-0.15,0.41-0.45,0.41h-0.67c-0.3,0-0.45-0.14-0.45-0.41
			v-10.06C174.89,131.76,175.04,131.62,175.3,131.62z M177.93,131.62h0.9c0.3,0.03,0.45,0.17,0.45,0.41v10.27
			c0,0.28-0.15,0.41-0.45,0.41h-0.9c-0.26,0-0.39-0.14-0.39-0.41v-10.27C177.57,131.76,177.7,131.62,177.93,131.62z M180.39,131.62
			h1.34c0.3,0.03,0.45,0.17,0.45,0.41v10.27c0,0.28-0.15,0.41-0.45,0.41h-1.34c-0.3,0-0.45-0.14-0.45-0.41v-10.27
			C179.98,131.76,180.13,131.62,180.39,131.62z M206.79,131.2l0.22,0.41v2.28c0,0.28-0.82,0.47-2.46,0.57v-0.21l-0.45,0.21h-15.5
			c0,0.31-0.07,0.59-0.22,0.83c0.15,1.52,0.22,2.83,0.22,3.94v0.57h17.96c0.3,0.07,0.45,0.21,0.45,0.41v57.97
			c0,0.28-0.15,0.41-0.45,0.41h-1.12c-2.2,0-5.17-0.07-8.9-0.21c0-0.28-0.15-0.41-0.45-0.41c-0.11-11.34-0.17-19.22-0.17-23.64
			c0-5.29,0.06-14.47,0.17-27.53c-0.11-1.24-0.17-2.61-0.17-4.1h-0.22c-1.57,0-3.93-0.07-7.11-0.21c-1.49,0.14-2.61,0.21-3.36,0.21
			v-0.21l-0.45,0.21h-1.73c-0.3,0-0.45-0.14-0.45-0.41v-10.27c0.04-0.28,0.19-0.41,0.45-0.41h2.18
			C194.06,131.62,201.24,131.48,206.79,131.2z M207.69,131.2h1.51c0.3,0.03,0.45,0.17,0.45,0.41v2.28c0,0.24-0.15,0.36-0.45,0.36
			h-1.51c-0.3,0-0.45-0.12-0.45-0.36v-2.28C207.28,131.34,207.43,131.2,207.69,131.2z M207.69,139.81h1.51
			c0.3,0.07,0.45,0.21,0.45,0.41v57.97c0,0.28-0.15,0.41-0.45,0.41h-1.51c-0.3,0-0.45-0.14-0.45-0.41v-57.97
			C207.28,139.95,207.43,139.81,207.69,139.81z M210.54,131.2c1.04,0.14,1.57,0.35,1.57,0.62v2.23c0,0.28-0.15,0.41-0.45,0.41
			c-0.78,0-1.23-0.19-1.34-0.57v-2.28L210.54,131.2z M210.54,195.55c1.04,0.14,1.57,0.33,1.57,0.57v2.07c0,0.28-0.15,0.41-0.45,0.41
			h-0.9c-0.3,0-0.45-0.14-0.45-0.41v-2.28L210.54,195.55z M213.45,131.41c0.86,0.17,1.29,0.38,1.29,0.62v2.85l-0.22,0.41
			c-0.86-0.31-1.29-0.59-1.29-0.83v-2.64L213.45,131.41z M213.68,195.75h0.62c0.3,0.03,0.45,0.16,0.45,0.36v2.07
			c0,0.28-0.15,0.41-0.45,0.41h-0.62c-0.3,0-0.45-0.14-0.45-0.41v-2.07C213.27,195.87,213.41,195.75,213.68,195.75z M215.86,132.24
			c1.01,0.38,1.6,0.8,1.79,1.24v3.06c0,0.28-0.15,0.41-0.45,0.41l-1.57-1.24v-3.06L215.86,132.24z M216.08,195.75h1.12
			c0.3,0.03,0.45,0.16,0.45,0.36v2.07c0,0.28-0.15,0.41-0.45,0.41h-1.12c-0.3,0-0.45-0.14-0.45-0.41v-2.07
			C215.71,195.87,215.86,195.75,216.08,195.75z M218.32,133.9h0.45c1.16,0.59,1.73,0.99,1.73,1.19v63.1c0,0.28-0.13,0.41-0.39,0.41
			h-1.34c-0.3,0-0.45-0.14-0.45-0.41v-2.07c0-0.24,0.22-0.36,0.67-0.36c0.15-7.15,0.22-12.77,0.22-16.85v-28.36
			c0-2.8,0.07-6.64,0.22-11.51c0-0.14-0.37-0.62-1.12-1.45V133.9z M220.72,135.3h0.67c1.94,0.86,2.91,2.25,2.91,4.15
			c-0.3,3.11-0.45,5.5-0.45,7.15v40.29c0,2.56-0.07,6.33-0.22,11.3l-0.67,0.41h-1.79c-0.3,0-0.45-0.14-0.45-0.41V135.3z"/>
	</g>
	<rect x="-47" y="5.82" class="st0" width="341" height="862.68"/>
</g>
</svg>
